<svg _ngcontent-oth-c143="" width="20" height="18" viewBox="0 0 20 18" fill="" xmlns="http://www.w3.org/2000/svg" class="like"><path _ngcontent-oth-c143="" d="M18.378 1.61694C17.3298 0.580976 15.9154 0 14.4416 0C12.9679 0 11.5535 0.580976 10.5053 1.61694L9.91313 2.19541L9.33124 1.61694C8.27226 0.649383 6.88095 0.127464 5.44688 0.159798C4.01281 0.192132 2.64645 0.776229 1.63215 1.79053C0.617848 2.80483 0.0337514 4.17119 0.00141743 5.60526C-0.0309166 7.03933 0.491003 8.43064 1.45856 9.48962L9.55031 17.6019C9.64701 17.6972 9.77735 17.7507 9.91313 17.7507C10.0489 17.7507 10.1793 17.6972 10.276 17.6019L18.378 9.49989C19.4171 8.45123 20 7.03468 20 5.55841C20 4.08215 19.4171 2.6656 18.378 1.61694Z" fill=""></path></svg>