<svg _ngcontent-oth-c143="" width="24" height="21" viewBox="0 0 24 21" fill="" xmlns="http://www.w3.org/2000/svg" class="rotation"><path _ngcontent-oth-c143="" d="M23.3325 8.83499H21.9859C21.2695 3.84175 16.9868 0 11.7955 0C7.78367 0 4.31595 2.29711 2.61226 5.64261L5.37762 6.70575C6.63883 4.46314 9.03826 2.94497 11.7955 2.94497C15.3575 2.94497 18.3283 5.47474 19.01 8.83496H17.2356C17.0082 9.05583 16.7902 9.1928 17.1164 9.57565L19.8633 12.369C20.0908 12.5898 20.4597 12.5898 20.6872 12.369L23.4526 9.57565C23.6793 9.35482 23.56 9.0566 23.3325 8.83499ZM11.7955 17.67C8.49929 17.67 5.70966 15.5032 4.77094 12.5162H6.38187C6.60936 12.2954 6.72862 11.9964 6.50112 11.7755L3.73654 8.98222C3.50904 8.76134 3.14017 8.76134 2.91268 8.98222L0.165692 11.7755C-0.160492 12.1584 0.057452 12.2953 0.284949 12.5162H1.63525C2.43407 16.8837 6.67192 20.615 11.7962 20.615C15.5459 20.615 18.8178 18.6058 20.6216 15.6122L17.8349 14.5122C16.5038 16.4199 14.2972 17.67 11.7955 17.67Z" fill=""></path></svg>