<svg width="24" height="25" viewBox="0 0 24 25" fill="none" xmlns="http://www.w3.org/2000/svg">
<path fill-rule="evenodd" clip-rule="evenodd" d="M4 2H17C18.1046 2 19 2.8954 19 4V9.5815C18.0736 9.2065 17.0609 9 16 9C13.9711 9 12.1186 9.7553 10.7084 11H6C5.4477 11 5 11.4477 5 12C5 12.5523 5.4477 13 6 13H9.0703C8.5475 13.9037 8.1964 14.9192 8.0617 16.0019C8.0413 16.0006 8.0207 16 8 16H6C5.4477 16 5 16.4477 5 17C5 17.5523 5.4477 18 6 18H8C8.0207 18 8.0413 17.9994 8.0617 17.9981C8.2488 19.5013 8.8529 20.8751 9.7546 22H4C2.8954 22 2 21.1046 2 20V4C2 2.8954 2.8954 2 4 2ZM12.124 24H4C1.7909 24 0 22.2091 0 20V4C0 1.7909 1.7909 0 4 0H17C19.2091 0 21 1.7909 21 4V10.7546C22.8289 12.2207 24 14.4736 24 17C24 21.4183 20.4183 25 16 25C14.5937 25 13.2722 24.6372 12.124 24ZM5 7C5 6.4477 5.4477 6 6 6H15C15.5523 6 16 6.4477 16 7C16 7.5523 15.5523 8 15 8H6C5.4477 8 5 7.5523 5 7ZM22 17C22 20.3137 19.3137 23 16 23C12.6863 23 10 20.3137 10 17C10 13.6863 12.6863 11 16 11C19.3137 11 22 13.6863 22 17ZM15 14C15 13.4477 15.4477 13 16 13C16.5523 13 17 13.4477 17 14V16H19C19.5523 16 20 16.4477 20 17C20 17.5523 19.5523 18 19 18H17V20C17 20.5523 16.5523 21 16 21C15.4477 21 15 20.5523 15 20V18H13C12.4477 18 12 17.5523 12 17C12 16.4477 12.4477 16 13 16H15V14Z" fill="white"/>
</svg>
