<svg width="30" height="16" viewBox="0 0 30 16" fill="none" xmlns="http://www.w3.org/2000/svg">
<path d="M21.8182 0H8.18182C3.66818 0 0 3.58667 0 8C0 12.4133 3.66818 16 8.18182 16H21.8182C26.3318 16 30 12.4133 30 8C30 3.58667 26.3318 0 21.8182 0ZM21.8182 13.3333H8.18182C5.16818 13.3333 2.72727 10.9467 2.72727 8C2.72727 5.05333 5.16818 2.66667 8.18182 2.66667H21.8182C24.8318 2.66667 27.2727 5.05333 27.2727 8C27.2727 10.9467 24.8318 13.3333 21.8182 13.3333Z" fill="#2C7A77"/>
<circle cx="21" cy="8" r="4" fill="#2C7A77"/>
</svg>
