<svg width="121" height="40" viewBox="0 0 121 40" fill="none" xmlns="http://www.w3.org/2000/svg">
<g clip-path="url(#clip0_112_6131)">
<rect width="40" height="40" fill="white" fill-opacity="0.01"/>
<rect width="40" height="40" rx="20" fill="#BDBDBD"/>
<path d="M20 20C22.21 20 24 18.21 24 16C24 13.79 22.21 12 20 12C17.79 12 16 13.79 16 16C16 18.21 17.79 20 20 20ZM20 22C17.33 22 12 23.34 12 26V28H28V26C28 23.34 22.67 22 20 22Z" fill="white"/>
</g>
<rect width="16" height="32" transform="translate(40 4)" fill="white" fill-opacity="0.01"/>
<rect width="16" height="32" transform="translate(40 4)" fill="white" fill-opacity="0.01"/>
<g clip-path="url(#clip1_112_6131)">
<path d="M67.3984 20.9912H68.9854C68.9346 21.5964 68.7653 22.1359 68.4775 22.6099C68.1898 23.0796 67.7856 23.4499 67.2651 23.7207C66.7446 23.9915 66.112 24.127 65.3672 24.127C64.7959 24.127 64.2817 24.0254 63.8247 23.8223C63.3677 23.6149 62.9762 23.3229 62.6504 22.9463C62.3245 22.5654 62.0749 22.1063 61.9014 21.5688C61.7321 21.0314 61.6475 20.4305 61.6475 19.7661V18.998C61.6475 18.3337 61.7342 17.7327 61.9077 17.1953C62.0854 16.6579 62.3394 16.1987 62.6694 15.8179C62.9995 15.4328 63.3952 15.1387 63.8564 14.9355C64.3219 14.7324 64.8446 14.6309 65.4243 14.6309C66.1606 14.6309 66.7827 14.7663 67.2905 15.0371C67.7983 15.3079 68.1919 15.6825 68.4712 16.1606C68.7547 16.6388 68.9282 17.1868 68.9917 17.8047H67.4048C67.3625 17.4069 67.2694 17.0662 67.1255 16.7827C66.9858 16.4992 66.7785 16.2834 66.5034 16.1353C66.2284 15.9829 65.8687 15.9067 65.4243 15.9067C65.0604 15.9067 64.743 15.9744 64.4722 16.1099C64.2013 16.2453 63.9749 16.4442 63.793 16.7065C63.611 16.9689 63.4735 17.2926 63.3804 17.6777C63.2915 18.0586 63.2471 18.4945 63.2471 18.9854V19.7661C63.2471 20.2316 63.2873 20.6548 63.3677 21.0356C63.4523 21.4123 63.5793 21.736 63.7485 22.0068C63.922 22.2777 64.1421 22.4871 64.4087 22.6353C64.6753 22.7834 64.9948 22.8574 65.3672 22.8574C65.82 22.8574 66.186 22.7855 66.4653 22.6416C66.7489 22.4977 66.9626 22.2882 67.1064 22.0132C67.2546 21.7339 67.3519 21.3932 67.3984 20.9912ZM76.9991 18.6172V19.8804H72.0923V18.6172H76.9991ZM72.4859 14.7578V24H70.8926V14.7578H72.4859ZM78.2242 14.7578V24H76.6372V14.7578H78.2242ZM84.2955 15.9893L81.5343 24H79.8648L83.3433 14.7578H84.4097L84.2955 15.9893ZM86.606 24L83.8385 15.9893L83.7179 14.7578H84.7906L88.2818 24H86.606ZM86.4727 20.5723V21.8354H81.4454V20.5723H86.4727ZM97.108 14.7578V24H95.5148L91.3697 17.3794V24H89.7765V14.7578H91.3697L95.5275 21.3911V14.7578H97.108ZM106.563 19.2773V22.8066C106.431 22.9801 106.226 23.1706 105.947 23.3779C105.672 23.5811 105.306 23.7567 104.849 23.9048C104.392 24.0529 103.823 24.127 103.141 24.127C102.562 24.127 102.03 24.0296 101.548 23.835C101.066 23.6361 100.649 23.3462 100.298 22.9653C99.9505 22.5845 99.6818 22.1211 99.4914 21.5752C99.3009 21.0251 99.2057 20.3988 99.2057 19.6963V19.0552C99.2057 18.3569 99.2925 17.7349 99.466 17.189C99.6437 16.6388 99.8976 16.1733 100.228 15.7925C100.558 15.4116 100.956 15.1239 101.421 14.9292C101.891 14.7303 102.422 14.6309 103.014 14.6309C103.772 14.6309 104.398 14.7578 104.893 15.0117C105.393 15.2614 105.778 15.6084 106.048 16.0527C106.319 16.4971 106.491 17.0049 106.563 17.5762H105.001C104.95 17.2546 104.851 16.9668 104.703 16.7129C104.559 16.459 104.352 16.2601 104.081 16.1162C103.814 15.9681 103.467 15.894 103.04 15.894C102.672 15.894 102.348 15.9639 102.069 16.1035C101.789 16.2432 101.556 16.4484 101.37 16.7192C101.188 16.9901 101.051 17.3201 100.958 17.7095C100.865 18.0988 100.818 18.5431 100.818 19.0425V19.6963C100.818 20.2041 100.871 20.6548 100.977 21.0483C101.087 21.4419 101.243 21.7741 101.446 22.0449C101.654 22.3158 101.906 22.521 102.202 22.6606C102.498 22.7961 102.832 22.8638 103.205 22.8638C103.569 22.8638 103.867 22.8341 104.1 22.7749C104.333 22.7114 104.517 22.6374 104.652 22.5527C104.792 22.4639 104.9 22.3792 104.976 22.2988V20.4644H103.052V19.2773H106.563ZM114.837 22.7368V24H109.93V22.7368H114.837ZM110.381 14.7578V24H108.787V14.7578H110.381ZM114.196 18.6172V19.8613H109.93V18.6172H114.196ZM114.805 14.7578V16.0273H109.93V14.7578H114.805Z" fill="#1976D2"/>
</g>
<defs>
<clipPath id="clip0_112_6131">
<rect width="40" height="40" fill="white"/>
</clipPath>
<clipPath id="clip1_112_6131">
<rect x="56" y="5" width="65" height="30" rx="4" fill="white"/>
</clipPath>
</defs>
</svg>
