<svg width="24" height="25" viewBox="0 0 24 25" fill="none" xmlns="http://www.w3.org/2000/svg">
<path d="M23.25 4.24252H11.831C11.4869 5.80903 10.0879 6.98508 8.41955 6.98508C6.75117 6.98508 5.35223 5.80908 5.00808 4.24252H0.75C0.335812 4.24252 0 3.9067 0 3.49252C0 3.07833 0.335812 2.74252 0.75 2.74252H5.00845C5.35327 1.1768 6.75413 0 8.41955 0C10.0859 0 11.4861 1.17661 11.8307 2.74252H23.25C23.6642 2.74252 24 3.07833 24 3.49252C24 3.9067 23.6642 4.24252 23.25 4.24252ZM10.412 3.49448C10.412 3.49181 10.412 3.48909 10.412 3.48642C10.4087 2.39109 9.51492 1.50005 8.41955 1.50005C7.32572 1.50005 6.43191 2.38988 6.42717 3.48469L6.42703 3.4957C6.42876 4.59291 7.32192 5.48513 8.41955 5.48513C9.5167 5.48513 10.4096 4.5938 10.4121 3.49725L10.412 3.49448ZM0.75 19.7807H5.00845C5.35331 18.215 6.75413 17.0382 8.41955 17.0382C10.0859 17.0382 11.4861 18.2148 11.8307 19.7807H23.25C23.6642 19.7807 24 20.1165 24 20.5307C24 20.9449 23.6642 21.2807 23.25 21.2807H11.831C11.4869 22.8472 10.0879 24.0232 8.41955 24.0232C6.75117 24.0232 5.35223 22.8472 5.00808 21.2807H0.75C0.335812 21.2807 0 20.9449 0 20.5307C0 20.1165 0.335812 19.7807 0.75 19.7807ZM8.41955 22.5232C9.5167 22.5232 10.4096 21.6319 10.4121 20.5354L10.412 20.5327C10.412 20.5299 10.412 20.5273 10.412 20.5246C10.4087 19.4293 9.51492 18.5382 8.41955 18.5382C7.32572 18.5382 6.43191 19.428 6.42717 20.5228L6.42703 20.5338C6.42863 21.6311 7.32183 22.5232 8.41955 22.5232ZM0.75 11.2616H12.169C12.5131 9.69511 13.9121 8.51911 15.5805 8.51911C17.2488 8.51911 18.6478 9.69511 18.9919 11.2616H23.25C23.6642 11.2616 24 11.5974 24 12.0116C24 12.4259 23.6642 12.7616 23.25 12.7616H18.9915C18.6467 14.3273 17.2459 15.5041 15.5805 15.5041C13.9141 15.5041 12.5139 14.3275 12.1693 12.7616H0.75C0.335812 12.7616 0 12.4259 0 12.0116C0 11.5974 0.335812 11.2616 0.75 11.2616ZM13.588 12.0097C13.588 12.0124 13.588 12.015 13.588 12.0177C13.5913 13.113 14.4851 14.0041 15.5805 14.0041C16.6743 14.0041 17.5681 13.1143 17.5728 12.0195L17.573 12.0085C17.5713 10.9112 16.6781 10.0191 15.5805 10.0191C14.4833 10.0191 13.5904 10.9104 13.5879 12.007L13.588 12.0097Z" fill="#929697"/>
</svg>
