<svg width="26" height="27" viewBox="0 0 26 27" fill="none" xmlns="http://www.w3.org/2000/svg">
<path d="M1.52743 1.52743H5.19327V0H0V5.19327H1.52743V1.52743Z" fill="#2C7A77"/>
<path d="M22.359 22.4888V6.97356H18.1299V8.50099H20.8315V10.5744H18.9188V12.1019H20.8315V14.2767H16.463V11.9442H14.9356V14.2767H14.9105H11.815V8.03751H13.6046V6.51008H11.815V3.68652H3.60278V11.8987H10.2875V17.5087H7.83458V20.9614H4.39155V22.4888H11.8149V20.9614H9.36201V19.0361H11.8149V15.8041H14.1467V22.4888H22.359V22.4888ZM20.8315 20.9614H15.6742V15.8041H20.8315V20.9614ZM5.13021 5.21395H10.2875V10.3712H5.13021V5.21395Z" fill="#2C7A77"/>
<path d="M18.155 3.68652H22.3589V5.21395H18.155V3.68652Z" fill="#2C7A77"/>
<path d="M6.91992 6.90137H8.4975V8.4288H6.91992V6.90137Z" fill="#2C7A77"/>
<path d="M17.3406 17.6182H18.9182V19.1456H17.3406V17.6182Z" fill="#2C7A77"/>
<path d="M14.6133 3.68652H16.1909V5.21395H14.6133V3.68652Z" fill="#2C7A77"/>
<path d="M14.9104 8.89844H16.488V10.4259H14.9104V8.89844Z" fill="#2C7A77"/>
<path d="M4.36597 17.5088H5.94355V19.0362H4.36597V17.5088Z" fill="#2C7A77"/>
<path d="M4.0376 14.2773H8.47249V15.8048H4.0376V14.2773Z" fill="#2C7A77"/>
<path d="M1.52743 20.8584H0V26.0517H5.19327V24.5242H1.52743V20.8584Z" fill="#2C7A77"/>
<path d="M20.8069 0V1.52743L24.4727 1.52748V5.19332H26.0002V5.09144e-05L20.8069 0Z" fill="#2C7A77"/>
<path d="M24.4727 24.5242L20.8069 24.5242V26.0516L26.0002 26.0517V20.8584H24.4727V24.5242Z" fill="#2C7A77"/>
</svg>
