<svg width="28" height="28" viewBox="0 0 28 28" fill="none" xmlns="http://www.w3.org/2000/svg">
<path d="M26.9233 0.387834C26.6631 0.215761 26.3722 0.0976082 26.0672 0.0401262C25.7622 -0.0173558 25.4491 -0.013041 25.1457 0.052824C24.8423 0.118689 24.5547 0.244814 24.2991 0.423993C24.0436 0.603173 23.8252 0.831896 23.6565 1.0971L10.4205 21.8864L3.96546 15.8047C3.73772 15.5901 3.47074 15.4233 3.17975 15.3139C2.88876 15.2045 2.57946 15.1545 2.26952 15.1669C1.64358 15.1918 1.053 15.4692 0.627726 15.9379C0.202447 16.4065 -0.0227013 17.0282 0.0018109 17.666C0.0263231 18.3038 0.298488 18.9056 0.758432 19.3389L9.23388 27.3238C9.23388 27.3238 9.47718 27.5372 9.58978 27.6118C9.85 27.784 10.141 27.9023 10.4461 27.9598C10.7512 28.0174 11.0644 28.0131 11.3679 27.9472C11.6713 27.8813 11.9591 27.7552 12.2147 27.5759C12.4703 27.3967 12.6887 27.1678 12.8574 26.9025L27.6194 3.71671C27.7883 3.45159 27.9042 3.15516 27.9606 2.84435C28.017 2.53355 28.0128 2.21447 27.9482 1.90534C27.8835 1.5962 27.7597 1.30307 27.5839 1.0427C27.4081 0.782319 27.1836 0.559794 26.9233 0.387834Z" fill="white"/>
</svg>
