<svg width="32" height="23" viewBox="0 0 32 23" fill="none" xmlns="http://www.w3.org/2000/svg">
<path d="M2.90909 0C2.13755 0 1.39761 0.302901 0.852053 0.842068C0.306493 1.38123 0 2.1125 0 2.875V18.6875H2.90909C2.90909 19.8312 3.36883 20.9281 4.18717 21.7369C5.00551 22.5456 6.11542 23 7.27273 23C8.43004 23 9.53994 22.5456 10.3583 21.7369C11.1766 20.9281 11.6364 19.8312 11.6364 18.6875H20.3636C20.3636 19.8312 20.8234 20.9281 21.6417 21.7369C22.4601 22.5456 23.57 23 24.7273 23C25.8846 23 26.9945 22.5456 27.8128 21.7369C28.6312 20.9281 29.0909 19.8312 29.0909 18.6875H32V11.5L27.6364 5.75H23.2727V0M13.0909 2.875L18.9091 8.625L13.0909 14.375V10.0625H4.36364V7.1875H13.0909M23.2727 7.90625H26.9091L29.7745 11.5H23.2727M7.27273 16.5312C7.85138 16.5312 8.40634 16.7584 8.81551 17.1628C9.22468 17.5672 9.45455 18.1156 9.45455 18.6875C9.45455 19.2594 9.22468 19.8078 8.81551 20.2122C8.40634 20.6166 7.85138 20.8438 7.27273 20.8438C6.69407 20.8438 6.13912 20.6166 5.72995 20.2122C5.32078 19.8078 5.09091 19.2594 5.09091 18.6875C5.09091 18.1156 5.32078 17.5672 5.72995 17.1628C6.13912 16.7584 6.69407 16.5312 7.27273 16.5312ZM24.7273 16.5312C25.3059 16.5312 25.8609 16.7584 26.2701 17.1628C26.6792 17.5672 26.9091 18.1156 26.9091 18.6875C26.9091 19.2594 26.6792 19.8078 26.2701 20.2122C25.8609 20.6166 25.3059 20.8438 24.7273 20.8438C24.1486 20.8438 23.5937 20.6166 23.1845 20.2122C22.7753 19.8078 22.5455 19.2594 22.5455 18.6875C22.5455 18.1156 22.7753 17.5672 23.1845 17.1628C23.5937 16.7584 24.1486 16.5312 24.7273 16.5312Z" fill="white"/>
</svg>
