<svg width="26" height="27" viewBox="0 0 26 27" fill="none" xmlns="http://www.w3.org/2000/svg">
<path d="M1.52743 1.53134H5.19327V0.00390625H0V5.19717H1.52743V1.53134Z" fill="white"/>
<path d="M22.3587 22.4927V6.97746H18.1297V8.50489H20.8313V10.5783H18.9185V12.1058H20.8313V14.2806H16.4628V11.9481H14.9354V14.2806H14.9103H11.8147V8.04142H13.6044V6.51399H11.8147V3.69043H3.60254V11.9026H10.2872V17.5126H7.83434V20.9653H4.3913V22.4927H11.8147V20.9653H9.36177V19.04H11.8147V15.8081H14.1465V22.4928H22.3587V22.4927ZM20.8313 20.9653H15.674V15.808H20.8313V20.9653ZM5.12997 5.21786H10.2872V10.3751H5.12997V5.21786Z" fill="white"/>
<path d="M18.1548 3.69043H22.3587V5.21786H18.1548V3.69043Z" fill="white"/>
<path d="M6.91992 6.90527H8.4975V8.4327H6.91992V6.90527Z" fill="white"/>
<path d="M17.3408 17.6221H18.9184V19.1495H17.3408V17.6221Z" fill="white"/>
<path d="M14.6133 3.69043H16.1909V5.21786H14.6133V3.69043Z" fill="white"/>
<path d="M14.9102 8.90234H16.4877V10.4298H14.9102V8.90234Z" fill="white"/>
<path d="M4.36572 17.5127H5.9433V19.0401H4.36572V17.5127Z" fill="white"/>
<path d="M4.0376 14.2812H8.47249V15.8087H4.0376V14.2812Z" fill="white"/>
<path d="M1.52743 20.8623H0V26.0556H5.19327V24.5281H1.52743V20.8623Z" fill="white"/>
<path d="M20.8071 0.00390625V1.53134L24.473 1.53139V5.19722H26.0004V0.00395716L20.8071 0.00390625Z" fill="white"/>
<path d="M24.473 24.5281L20.8071 24.5281V26.0555L26.0004 26.0556V20.8623H24.473V24.5281Z" fill="white"/>
</svg>
