<svg width="338" height="116" viewBox="0 0 338 116" fill="none" xmlns="http://www.w3.org/2000/svg">
<path fill-rule="evenodd" clip-rule="evenodd" d="M104.02 36.0154C104.541 37.3086 104.482 38.5564 104.07 39.5419C102.445 43.4294 97.0575 43.6234 95.3589 39.4131C94.2749 36.7265 96.2538 33.1565 99.8547 33.2016C101.572 33.2232 103.334 34.3168 104.02 36.0154ZM91.4578 54.8473C92.2597 55.423 93.6161 57.5867 94.1941 58.6267C97.9845 65.4489 97.6996 73.7131 93.8007 80.1244C92.6663 81.9895 90.3145 84.9302 87.9102 86.4584C87.5383 86.5194 86.8583 87.0596 86.4484 87.3092C86.0376 87.5593 85.3579 87.9819 84.8566 88.2134C82.0692 89.5009 79.3635 90.2864 76.3686 90.3961C75.8556 90.4149 75.2646 90.3745 74.7638 90.4526L74.0825 95.9361C76.3793 96.174 79.9718 95.7434 82.2615 95.1268C84.339 94.5673 86.9252 93.586 88.924 92.4164C90.7901 91.3245 92.4547 90.1133 93.9781 88.6542C95.3874 87.3041 96.5622 85.9459 97.6385 84.3682L99.5516 81.195C100.133 80.1051 100.703 78.633 101.089 77.4499C103.453 70.2021 102.726 62.446 98.8974 55.6654C96.8516 52.0424 93.9562 49.4752 93.7764 49.1184C94.079 48.9059 95.2992 47.2948 95.5365 46.98L97.252 44.8225C98.0978 44.9997 98.5243 45.2349 99.6207 45.2324C101.078 45.2293 102.327 44.9454 103.665 44.1122C104.009 43.8984 104.506 43.5213 104.758 43.2706C105.404 42.627 105.801 42.0934 106.231 41.3537C108.048 38.2213 107.02 34.0978 104.059 31.8808C103.417 31.4002 102.71 31.0639 101.96 30.8355C95.1797 28.7705 89.6038 36.2762 93.8059 42.2582C93.204 42.9719 92.6559 43.6656 92.0906 44.4156C91.8591 44.7224 90.6307 46.3432 90.3305 46.554C88.8649 45.5573 87.3592 44.784 85.7428 44.0883C85.2993 43.8974 84.9859 43.8389 84.554 43.6512L82.0596 42.8903C81.5898 42.7754 81.1922 42.66 80.7343 42.6125L80.0865 48.1791C80.885 48.2618 82.4235 48.7938 83.1914 49.1209C84.8857 49.8427 85.3589 50.0569 86.86 51C87.1301 51.1697 87.3038 51.268 87.5615 51.4514C88.7521 52.2989 90.1239 53.4655 91.1154 54.5741L91.4578 54.8473ZM20.7497 69.4179C16.8369 70.9965 13.1223 67.1452 14.6202 63.376C15.4927 61.181 17.9584 59.9546 20.341 60.6779C20.5362 60.7371 20.5307 60.7136 20.71 60.7798C21.5398 61.0862 22.7217 62.1122 23.0727 62.9825C23.7342 64.6222 23.8657 65.3757 23.1565 67.0731C22.7891 67.9524 21.9651 68.9275 20.7497 69.4179ZM26.0937 67.8406L31.6762 68.2891C33.5543 68.4399 35.3475 68.6241 37.2422 68.7764C39.1172 68.927 40.9658 69.018 42.825 69.2243C43.3228 69.2795 43.6805 69.3338 44.2039 69.3758L48.4572 69.7175C48.5811 70.1172 48.6696 73.6551 49.5337 76.4293C50.3666 79.1036 50.6644 79.824 51.9827 82.2817C52.1979 82.6829 52.386 82.9727 52.6238 83.3606C54.8173 86.9396 58.0628 90.0239 61.4919 92.0868L64.009 93.4412C64.3182 93.6247 64.5814 93.7187 64.9279 93.8663C65.2813 94.0167 65.4324 94.0909 65.8173 94.1992L67.6124 94.8266C67.9204 94.9152 68.309 95.0931 68.6149 95.0555C68.8006 94.7559 68.9436 92.8503 69.0228 92.3421C69.0956 91.8754 69.1422 91.4087 69.1835 90.9673L69.3792 89.5384L67.9446 89.0327C67.7051 88.948 67.6417 88.9621 67.3958 88.8689C67.0074 88.7215 66.7827 88.6013 66.4265 88.4004C65.4627 87.8562 65.0169 87.7914 63.594 86.818C62.3509 85.9676 61.1945 85.0559 60.1384 83.9526C55.7158 79.3326 53.6234 73.3269 54.1726 66.9923C54.2708 65.8594 54.6493 63.9546 54.9844 62.87L56.5813 59.0127C56.2159 58.7641 55.8708 58.4673 55.4979 58.1661L52.2025 55.5707C51.9999 55.7229 51.9154 55.8776 51.8108 56.0915C51.691 56.3369 51.6331 56.4167 51.5091 56.6506C50.4833 58.5863 49.8117 60.6581 49.25 62.7693C49.134 63.2056 49.0445 63.6485 48.9659 64.0919C48.881 64.5712 48.8095 64.9715 48.7602 65.4476L37.6281 64.473C36.9081 64.4152 26.7823 63.5105 26.3966 63.5707C25.8571 61.8294 25.698 61.2419 24.2386 59.7547C22.4971 57.9804 19.2193 57.2065 16.8791 58.1506C14.5202 59.1023 13.3626 60.0657 12.3526 62.4122C10.3119 67.1543 14.1102 72.4674 18.9522 72.5146C21.7488 72.5419 24.26 71.1938 25.6182 68.7381C25.7866 68.4337 25.9358 68.0728 26.0937 67.8406ZM58.6611 26.6322C58.414 26.7887 57.2117 26.9883 56.722 26.99C52.1621 27.0054 50.0045 20.4831 54.9294 18.035C55.3983 17.802 56.3821 17.6662 56.8371 17.6647C59.1507 17.6569 61.4327 19.5536 61.4422 22.3849C61.4459 23.4694 60.9568 24.6563 60.2449 25.4498C59.6798 26.0796 59.4267 26.1378 58.8946 26.4566C58.556 26.6596 58.8727 26.4983 58.6611 26.6322ZM53.8344 15.5579L54.3497 15.35C55.9579 14.7705 57.7949 14.7475 59.6039 15.5209C63.1922 17.0551 64.9053 20.7719 63.8398 24.5037C63.519 25.6267 62.3731 27.5407 61.3562 28.0527L67.5143 43.3164C69.0838 42.6831 73.5579 41.9148 75.3177 42.0972C75.2689 42.5677 74.6039 47.2412 74.6699 47.6637C74.2686 47.638 73.5135 47.7329 73.0384 47.7828C69.565 48.1477 65.8356 49.5982 63.0238 51.6481C62.427 52.0831 61.9297 52.4719 61.431 52.8955C61.0639 53.2071 60.3726 53.9755 60.0218 54.1522C59.7753 53.801 56.1132 51.0033 55.726 50.6767C55.9418 50.4209 56.2738 50.1053 56.5362 49.8527C58.4644 47.9972 59.9908 46.7947 62.383 45.4651C62.7012 45.2882 63.1986 45.0509 63.4991 44.8399L57.3745 29.6592C56.6747 29.7683 55.7662 29.6823 55.0975 29.5187C52.9632 28.9963 50.9003 27.4791 49.9526 25.13C48.3098 21.0583 50.4715 17.0661 53.8344 15.5579ZM64.6961 60.6536C64.2107 60.1768 62.7951 59.1991 62.3498 58.862L59.7976 56.9434C59.3949 57.2262 58.2884 59.063 57.943 59.6602C56.2285 62.6245 55.2084 67.2234 55.6023 70.6928C55.7466 71.9644 55.2413 71.684 57.7342 71.3375L60.8149 70.8811C61.1351 70.8241 61.6729 70.7199 62.0533 70.6838C61.5389 67.0808 62.5353 63.4654 64.6961 60.6536ZM90.9967 80.7203C91.8901 80.0927 93.2338 76.9796 93.7274 75.8329C94.647 73.6963 95.079 70.5492 94.9682 68.1816C94.9407 67.5961 94.9487 66.6077 94.707 66.0088C94.195 66.2022 89.5324 66.7547 88.5195 66.9823C89.0091 70.5189 88.0447 74.0636 85.9542 76.8443L85.9194 76.9814C87.4858 78.0468 89.4346 79.6577 90.9967 80.7203ZM81.7814 87.5248C84.2449 86.5309 85.2869 86.1287 87.4459 84.4344C88.6211 83.5121 89.5863 82.5445 90.451 81.5192C90.267 81.2572 89.4431 80.6819 89.1689 80.4931L85.3306 77.6124C83.9949 79.1389 82.2905 80.3834 80.2808 81.1942C79.3884 81.5542 78.4799 81.8101 77.5687 81.9693C77.4238 82.0409 77.2732 82.1095 77.1145 82.1735C77.2759 83.2086 77.4248 84.2393 77.5756 85.3247L78.0136 88.4662C79.1642 88.2869 80.4943 88.0441 81.7814 87.5248ZM63.4186 84.8054C63.7828 84.3734 64.0456 83.9861 64.3669 83.5591L67.2404 79.6946C67.1326 79.5961 66.9832 79.3912 66.824 79.1483C65.138 77.7722 63.7648 75.9642 62.893 73.8034C62.6297 73.1508 62.4218 72.4896 62.267 71.825L55.8748 72.8017C56.1572 73.5491 56.2363 74.654 56.9487 76.4196C57.6771 78.2251 58.8442 80.155 59.8674 81.3563C61.5292 83.3072 61.5406 83.2217 63.4186 84.8054ZM73.2491 55.5983C73.589 55.4287 73.6039 55.4828 73.5382 55.0177C73.4442 54.3506 73.3761 53.836 73.2707 53.1858C73.063 51.9041 72.9093 50.7585 72.7153 49.5133C71.6447 49.8449 70.4211 49.7637 67.9186 50.7733C67.1647 51.0775 66.2893 51.5391 65.6007 51.9186C64.4472 52.5545 62.8435 53.6974 61.8999 54.6068C61.5989 54.8969 61.4028 55.092 61.1208 55.3753C60.8737 55.6234 60.585 55.9747 60.3435 56.1444C60.478 56.4118 60.7114 56.5325 60.9335 56.6966L65.2955 59.9283C66.6218 58.4334 68.3047 57.2141 70.2838 56.4156C71.2589 56.0222 72.253 55.7525 73.2491 55.5983ZM88.3201 65.8858C88.7249 65.7422 89.4762 65.6859 89.8491 65.6344L94.5543 64.9129C93.9354 60.9412 91.2518 56.8129 88.2607 54.172C87.845 53.8049 87.4298 53.5304 87.0281 53.1916C86.8 53.3628 86.7242 53.5555 86.5756 53.7552L83.4376 57.9196C83.6115 58.0785 83.809 58.3648 84.0038 58.6819C85.5695 60.0285 86.8457 61.7591 87.6717 63.8064C87.9483 64.4921 88.1631 65.1872 88.3201 65.8858ZM77.1666 88.5186C77.027 88.0682 76.9978 87.403 76.9056 86.8956L76.1911 82.1362C73.3129 82.3329 70.4733 81.5836 68.0905 80.0645C67.0033 81.3697 65.4018 83.8243 64.184 85.2682C64.9613 85.924 66.7977 86.8349 67.8059 87.2572C68.1232 87.3901 68.2772 87.3895 68.5889 87.5171C70.4958 88.2976 75.6248 89.101 77.1666 88.5186ZM82.5546 57.5976C82.7735 57.4382 84.1736 55.483 84.409 55.171C84.7365 54.7368 84.9783 54.3922 85.2975 53.9679L86.2625 52.7287C85.9912 52.3675 83.9373 51.3145 83.4553 51.087L81.1941 50.2622C79.0485 49.5971 75.861 49.1027 73.5623 49.4609C73.7292 49.9029 73.9775 51.9816 74.0588 52.5586C74.1345 53.0955 74.2303 53.6236 74.2972 54.1033C74.3369 54.388 74.4695 55.0973 74.5037 55.4645C77.3698 55.2969 80.1911 56.0667 82.5546 57.5976ZM100.727 40.5267C104.388 39.0497 102.133 33.7864 98.5855 35.2176C97.2601 35.7522 96.4826 37.4169 97.1183 38.9926C97.6798 40.3842 99.3359 41.0882 100.727 40.5267ZM19.9974 67.7922C21.5088 67.1824 22.2089 65.6232 21.514 63.9008C20.9691 62.5503 19.3292 61.8885 17.7725 62.5166C16.381 63.078 15.7472 64.8447 16.2938 66.1998C16.8535 67.587 18.5648 68.3702 19.9974 67.7922ZM57.6264 25.0241L58.0412 24.8567C59.2927 24.3518 59.9812 22.732 59.4762 21.4804L59.3089 21.0658C58.804 19.8142 57.1842 19.1258 55.9327 19.6307L55.435 19.8315C54.3093 20.2857 53.6006 21.9789 54.0493 23.0912C54.5268 24.2748 55.1439 25.0534 56.5278 25.183C56.8612 25.2143 57.1969 25.1974 57.6264 25.0241ZM91.4578 54.8473C91.6396 55.2168 92.4459 56.1142 92.8313 56.6779C94.4257 59.0104 95.2997 60.8937 96.0863 63.7085C96.908 66.6483 96.8792 70.1481 96.4104 72.5747C95.863 75.408 95.0849 77.5952 93.5875 80.1033C92.8984 81.2574 92.0671 82.3442 91.1432 83.3941C89.835 84.8809 88.2288 86.0336 88.0662 86.2119C87.9034 86.3903 87.9826 86.2692 87.9102 86.4584C90.3145 84.9302 92.6663 81.9895 93.8007 80.1244C97.6996 73.7131 97.9845 65.4489 94.1941 58.6267C93.6161 57.5867 92.2597 55.423 91.4578 54.8473ZM64.0915 73.3833C61.5836 67.1671 64.5897 60.0948 70.8059 57.5869C77.0221 55.0789 84.0944 58.0851 86.6023 64.3013C89.1102 70.5175 86.1041 77.5898 79.8879 80.0977C73.6717 82.6057 66.5995 79.5995 64.0915 73.3833Z" fill="url(#paint0_linear_398_191)"/>
<path d="M123.722 95.3878H112.122V55.4827H127.736L133.259 75.3983C133.333 75.6665 133.481 76.2862 133.694 77.2484C133.906 78.2195 134.221 79.5516 134.618 81.2444C134.868 79.9124 135.1 78.7375 135.321 77.7386C135.534 76.7395 135.729 75.981 135.886 75.4723L141.547 55.4827H157.133V95.3878H145.534L145.645 75.7497C145.645 74.5564 145.645 73.391 145.654 72.2623C145.663 71.1339 145.682 69.9685 145.7 68.7567C145.265 70.8193 144.738 73.0672 144.128 75.4999L144.044 75.8515L139.114 95.3878H130.169L125.183 76.2862C124.952 75.4168 124.712 74.427 124.48 73.3077C124.249 72.1886 123.935 70.6714 123.555 68.7567C123.611 70.4771 123.657 71.948 123.685 73.1691C123.713 74.3991 123.722 75.389 123.722 76.1291V95.3878ZM177.493 73.4094H181.609C184.273 73.4094 186.058 73.1134 186.965 72.5123C187.862 71.9202 188.315 70.8657 188.315 69.3393C188.315 67.8039 187.881 66.7401 187.02 66.1481C186.151 65.5468 184.347 65.2509 181.609 65.2509H177.493V73.4094ZM164.672 95.3878V55.4827H181.091C184.726 55.4827 187.603 55.6956 189.721 56.121C191.849 56.5465 193.625 57.2218 195.05 58.1653C196.89 59.414 198.269 60.9589 199.166 62.7995C200.072 64.6404 200.526 66.8234 200.526 69.358C200.526 73.8165 199.203 77.2391 196.567 79.6162C193.93 81.9936 190.119 83.1777 185.152 83.1777H177.493V95.3878H164.672Z" fill="#434242"/>
<path d="M203.429 61.3933V57.4114H231.56V61.3933H219.563V95.0057H215.375V61.3933H203.429ZM251.418 60.876H249.091C246.453 60.876 244.583 61.0226 243.489 61.3071C242.394 61.5915 241.455 62.0742 240.662 62.7462C239.921 63.3841 239.403 64.246 239.102 65.3319C238.8 66.4178 238.645 68.2795 238.645 70.9167V81.5694C238.645 84.1981 238.8 86.0423 239.102 87.111C239.403 88.1798 239.921 89.033 240.662 89.6709C241.455 90.343 242.394 90.8257 243.489 91.1101C244.583 91.3945 246.453 91.5409 249.091 91.5409H251.418C254.055 91.5409 255.934 91.3945 257.046 91.1101C258.158 90.8257 259.106 90.343 259.898 89.6709C260.622 89.0502 261.131 88.2143 261.424 87.1715C261.717 86.1286 261.864 84.2668 261.864 81.5694V70.8737C261.864 68.2277 261.708 66.3662 261.407 65.2802C261.105 64.1944 260.588 63.3324 259.847 62.6946C259.071 62.0397 258.14 61.5741 257.046 61.2898C255.951 61.0139 254.072 60.876 251.418 60.876ZM234.353 69.8394C234.353 65.0302 235.344 61.6863 237.335 59.7902C239.317 57.8941 242.842 56.946 247.91 56.946H252.65C257.77 56.946 261.303 57.8768 263.268 59.747C265.225 61.6172 266.207 64.9873 266.207 69.8394V82.5777C266.207 87.4041 265.208 90.7566 263.217 92.6443C261.226 94.5317 257.701 95.471 252.65 95.471H247.91C242.842 95.471 239.317 94.5317 237.335 92.6443C235.344 90.7566 234.353 87.4041 234.353 82.5777V69.8394ZM289.951 60.876H287.624C284.987 60.876 283.117 61.0226 282.022 61.3071C280.928 61.5915 279.988 62.0742 279.195 62.7462C278.454 63.3841 277.937 64.246 277.635 65.3319C277.334 66.4178 277.179 68.2795 277.179 70.9167V81.5694C277.179 84.1981 277.334 86.0423 277.635 87.111C277.937 88.1798 278.454 89.033 279.195 89.6709C279.988 90.343 280.928 90.8257 282.022 91.1101C283.117 91.3945 284.987 91.5409 287.624 91.5409H289.951C292.589 91.5409 294.468 91.3945 295.579 91.1101C296.691 90.8257 297.639 90.343 298.432 89.6709C299.156 89.0502 299.665 88.2143 299.957 87.1715C300.25 86.1286 300.397 84.2668 300.397 81.5694V70.8737C300.397 68.2277 300.242 66.3662 299.94 65.2802C299.639 64.1944 299.122 63.3324 298.38 62.6946C297.605 62.0397 296.674 61.5741 295.579 61.2898C294.485 61.0139 292.606 60.876 289.951 60.876ZM272.887 69.8394C272.887 65.0302 273.878 61.6863 275.869 59.7902C277.851 57.8941 281.376 56.946 286.443 56.946H291.184C296.303 56.946 299.837 57.8768 301.802 59.747C303.758 61.6172 304.741 64.9873 304.741 69.8394V82.5777C304.741 87.4041 303.741 90.7566 301.75 92.6443C299.759 94.5317 296.234 95.471 291.184 95.471H286.443C281.376 95.471 277.851 94.5317 275.869 92.6443C273.878 90.7566 272.887 87.4041 272.887 82.5777V69.8394ZM312.61 95.0057V57.4114H316.695V91.0756H338V95.0057H312.61Z" fill="#434242"/>
<defs>
<linearGradient id="paint0_linear_398_191" x1="99.5452" y1="88.3834" x2="53.2708" y2="42.185" gradientUnits="userSpaceOnUse">
<stop stop-color="#55B4AF"/>
<stop offset="0.458824" stop-color="#399793"/>
<stop offset="0.983985" stop-color="#22BC8E"/>
</linearGradient>
</defs>
</svg>
