<svg width="213" height="115" viewBox="0 0 213 115" fill="none" xmlns="http://www.w3.org/2000/svg">
<path fill-rule="evenodd" clip-rule="evenodd" d="M168.933 111.094C167.335 111.094 166.034 110.496 165.164 109.635C161.728 106.242 163.832 100.433 169.035 100.433C172.356 100.433 175.301 104.067 173.709 107.874C172.95 109.69 171.032 111.094 168.933 111.094ZM154.305 89.6684C153.349 90.2738 150.468 90.7877 149.115 90.956C140.239 92.0591 131.577 88.2127 126.435 81.3198C124.94 79.3145 122.823 75.5539 122.229 72.3434C122.324 71.922 122.041 70.9676 121.952 70.425C121.862 69.8811 121.705 68.9775 121.673 68.3455C121.5 64.8309 121.826 61.6185 122.993 58.3884C123.193 57.8351 123.49 57.2243 123.621 56.6586L118.086 53.5832C116.848 55.9223 115.765 59.925 115.439 62.6229C115.142 65.0708 115.076 68.2402 115.462 70.8661C115.823 73.3176 116.396 75.6062 117.294 77.8509C118.124 79.9276 119.064 81.7585 120.279 83.579L122.831 86.9729C123.741 88.0583 125.061 89.2953 126.153 90.2128C132.842 95.8335 141.397 98.3861 150.245 97.2245C154.973 96.6037 158.943 94.6272 159.399 94.5892C159.495 95.0018 160.684 96.9895 160.917 97.3768L162.475 100.125C161.924 100.948 161.491 101.3 161.023 102.467C160.402 104.017 160.168 105.466 160.48 107.246C160.559 107.703 160.747 108.393 160.906 108.768C161.313 109.73 161.709 110.382 162.311 111.155C164.861 114.429 169.685 115.105 173.31 112.909C174.097 112.432 174.757 111.825 175.321 111.126C180.423 104.806 174.837 95.6611 166.678 97.5621C166.177 96.6163 165.675 95.7364 165.12 94.8139C164.893 94.4364 163.698 92.4358 163.602 92.0263C165.29 90.8961 166.758 89.6274 168.19 88.2079C168.583 87.8183 168.78 87.5103 169.164 87.1318L171.043 84.807C171.366 84.3569 171.659 83.9838 171.906 83.5175L166.268 80.4421C165.837 81.2554 164.612 82.6624 163.935 83.3382C162.442 84.8295 162.011 85.2406 160.365 86.4315C160.069 86.6458 159.89 86.7883 159.585 86.9835C158.173 87.8855 156.345 88.8432 154.742 89.4216L154.305 89.6684ZM169.138 8.2715C169.138 3.436 174.824 1.13951 178.188 4.34767C180.146 6.21614 180.393 9.36259 178.602 11.5847C178.456 11.7668 178.483 11.771 178.336 11.9332C177.654 12.6837 176.057 13.4999 174.981 13.4998C172.955 13.4998 172.098 13.3164 170.598 11.8348C169.821 11.0674 169.138 9.7734 169.138 8.2715ZM168.523 14.6274L165.652 20.3683C164.687 22.2997 163.722 24.1265 162.748 26.0749C161.784 28.0031 160.894 29.9288 159.878 31.8163C159.606 32.3216 159.395 32.6786 159.126 33.2168L156.939 37.5908C156.461 37.5511 152.663 36.128 149.344 35.8569C146.144 35.5954 145.251 35.603 142.074 35.9503C141.555 36.007 141.166 36.0826 140.652 36.169C135.908 36.9656 131.238 39.0924 127.575 41.8524L125.057 43.9468C124.729 44.1967 124.516 44.4362 124.211 44.7412C123.899 45.0523 123.756 45.181 123.476 45.5437L122.039 47.1825C121.813 47.4718 121.457 47.8086 121.366 48.1498C121.605 48.4757 123.569 49.4448 124.075 49.7468C124.54 50.0243 125.016 50.2739 125.467 50.5072L126.902 51.3278L128.054 50.02C128.247 49.8017 128.259 49.7283 128.464 49.5069C128.787 49.1573 129.011 48.97 129.377 48.6777C130.369 47.8866 130.629 47.4406 132.274 46.3457C133.711 45.3892 135.175 44.5511 136.801 43.9018C143.607 41.1824 150.888 41.5337 157.384 44.8337C158.546 45.4238 160.409 46.6428 161.418 47.4641L164.832 50.8153C165.253 50.5335 165.717 50.2939 166.197 50.0268L170.368 47.6373C170.293 47.3568 170.165 47.2006 169.983 46.9977C169.773 46.7652 169.713 46.6694 169.518 46.4373C167.9 44.5171 165.986 42.9149 163.984 41.4127C163.57 41.1023 163.137 40.8173 162.7 40.5437C162.227 40.2478 161.832 40.0002 161.347 39.7436L167.156 28.3303C167.526 27.5898 172.83 17.216 172.931 16.7803C175.013 16.9535 175.706 17.0364 177.912 16.1229C180.545 15.033 182.773 11.8811 182.773 8.98909C182.773 6.07394 182.245 4.43054 180.184 2.35095C176.019 -1.85131 168.744 -0.0926468 166.617 5.03323C165.389 7.99376 165.745 11.2407 167.773 13.7373C168.024 14.0468 168.344 14.36 168.523 14.6274ZM198.355 66.9102C198.295 66.5804 198.598 65.217 198.806 64.6959C200.745 59.843 208.602 60.3466 209.092 66.6305C209.139 67.2288 208.861 68.3326 208.668 68.8168C207.684 71.2791 204.69 72.8911 201.676 71.6872C200.522 71.2261 199.471 70.1974 198.932 69.1005C198.505 68.2298 198.552 67.9359 198.441 67.2337C198.371 66.7867 198.406 67.1924 198.355 66.9102ZM212.194 66.5289V67.1657C212.121 69.1234 211.358 71.0857 209.76 72.6767C206.591 75.8325 201.906 76.0595 198.397 73.3268C197.34 72.5044 195.798 70.4657 195.69 69.1654H176.827C176.827 71.105 175.725 76.1895 174.776 77.9817C174.297 77.7281 169.615 75.0174 169.138 74.9063C169.337 74.4908 169.56 73.6476 169.711 73.1213C170.813 69.2732 170.87 64.6877 169.897 60.8203C169.691 59.9995 169.491 59.3042 169.254 58.5926C169.081 58.0688 168.56 57.0046 168.523 56.556C169.002 56.4445 173.546 53.7521 174.059 53.4807C174.238 53.8197 174.431 54.3078 174.587 54.6951C175.732 57.54 176.356 59.6779 176.743 62.7905C176.795 63.2045 176.834 63.835 176.929 64.2448H195.69C195.874 63.4543 196.355 62.5256 196.815 61.885C198.285 59.8406 200.783 58.2988 203.686 58.2988C208.717 58.2988 212.033 62.308 212.194 66.5289ZM159.609 58.7361C160.324 58.4247 161.97 57.3395 162.519 57.0106L165.653 55.1208C165.525 54.5716 164.047 52.608 163.56 51.9848C161.145 48.8916 156.695 45.8354 152.839 44.7665C151.425 44.3745 151.94 43.9578 151.239 46.7558L150.403 50.2256C150.327 50.5905 150.207 51.2067 150.082 51.6265C154.132 52.6247 157.547 55.2339 159.609 58.7361ZM127.004 78.0843C127.288 79.3028 130.021 82.0658 131.028 83.0821C132.904 84.9756 136.064 86.7843 138.628 87.6816C139.262 87.9035 140.309 88.3357 141.049 88.3357C141.063 87.7087 142.475 82.5162 142.667 81.3422C138.699 80.3461 135.345 77.8011 133.286 74.387L133.155 74.2912C131.351 75.4992 128.803 76.8796 127.004 78.0843ZM123.724 65.3724C123.724 68.4168 123.705 69.6967 124.58 72.7179C125.056 74.3622 125.67 75.8031 126.389 77.1616C126.747 77.0784 127.711 76.4495 128.03 76.239L132.737 73.3948C131.687 71.3208 131.096 68.9757 131.096 66.492C131.096 65.3892 131.213 64.314 131.435 63.2772C131.421 63.0925 131.412 62.9031 131.412 62.707C130.243 62.4346 129.084 62.1509 127.866 61.8458L124.339 60.9643C124.036 62.2641 123.724 63.7818 123.724 65.3724ZM134.488 47.0222C134.791 47.5946 135.09 48.0399 135.406 48.5646L138.281 53.2756C138.432 53.2033 138.714 53.1324 139.04 53.0673C141.226 51.8654 143.736 51.1813 146.406 51.1813C147.213 51.1813 148.005 51.2438 148.777 51.3642L150.48 44.1517C149.565 44.1314 148.357 43.7417 146.175 43.7417C143.943 43.7417 141.392 44.1546 139.676 44.727C136.89 45.6566 136.976 45.7054 134.488 47.0222ZM161.314 69.994C161.349 70.428 161.285 70.4206 161.807 70.5503C162.557 70.7363 163.133 70.8846 163.869 71.0515C165.32 71.3803 166.604 71.7081 168.01 72.0359C168.117 70.7558 168.728 69.4902 168.728 66.3976C168.728 65.4659 168.613 64.3376 168.505 63.443C168.323 61.9445 167.796 59.75 167.235 58.3571C167.055 57.9128 166.932 57.6208 166.752 57.1995C166.594 56.8306 166.344 56.3731 166.268 56.0437C165.926 56.0719 165.697 56.2683 165.428 56.4339L160.123 59.6841C161.143 61.7348 161.717 64.0462 161.717 66.492C161.717 67.6971 161.577 68.8693 161.314 69.994ZM143.918 81.6004C143.897 82.0922 143.635 82.9149 143.53 83.3332L142.279 88.6433C146.766 89.6886 152.304 88.6066 156.393 86.5601C156.962 86.2757 157.431 85.9521 157.964 85.6704C157.88 85.3546 157.707 85.1914 157.559 84.9478L154.478 79.827C154.235 79.9438 153.846 80.0309 153.425 80.102C151.323 81.1887 148.936 81.8029 146.406 81.8029C145.559 81.8029 144.728 81.7331 143.918 81.6004ZM124.646 60.0416C125.185 60.0864 125.905 60.3405 126.483 60.4601L131.848 61.7415C132.873 58.5982 134.887 55.9015 137.523 54.0204C136.602 52.3053 134.68 49.5507 133.668 47.6373C132.638 48.1823 130.882 49.7434 130.001 50.6338C129.724 50.9141 129.658 51.0781 129.389 51.3546C127.742 53.0466 124.689 58.1533 124.646 60.0416ZM155.199 79.0267C155.275 79.3277 156.753 81.6541 156.983 82.038C157.304 82.5723 157.567 82.9771 157.881 83.4982L158.784 85.0553C159.284 84.9217 161.284 83.1904 161.733 82.7756L163.579 80.7261C165.206 78.7309 167.098 75.5552 167.703 72.9586C167.161 72.9464 164.846 72.319 164.198 72.1579C163.595 72.0082 162.992 71.8836 162.454 71.749C162.134 71.6691 161.323 71.5059 160.919 71.3848C159.868 74.5028 157.84 77.1712 155.199 79.0267ZM165.55 105.661C165.55 110.185 172.111 110.045 172.111 105.661C172.111 104.023 170.675 102.483 168.728 102.483C167.008 102.483 165.55 103.941 165.55 105.661ZM171.188 8.16897C171.188 10.0367 172.545 11.4495 174.674 11.4495C176.343 11.4494 177.749 9.9903 177.749 8.06644C177.749 6.34685 176.144 4.91569 174.469 4.9156C172.755 4.9156 171.188 6.39855 171.188 8.16897ZM200.508 66.5V67.0127C200.508 68.5593 201.934 69.9856 203.481 69.9856H203.993C205.54 69.9856 206.966 68.5592 206.966 67.0127V66.3976C206.966 65.0064 205.47 63.5271 204.096 63.5271C202.633 63.527 201.541 63.8491 200.81 65.2644C200.634 65.6052 200.508 65.9692 200.508 66.5ZM154.305 89.6684C153.834 89.7032 152.534 90.1753 151.77 90.3432C148.607 91.0376 146.231 91.159 142.902 90.788C139.425 90.4008 135.718 88.8694 133.34 87.3307C130.564 85.534 128.573 83.7692 126.549 81.1023C125.618 79.875 124.819 78.5255 124.1 77.0934C123.081 75.0655 122.544 72.8641 122.424 72.6149C122.305 72.3653 122.399 72.5015 122.229 72.3434C122.823 75.5539 124.94 79.3145 126.435 81.3198C131.577 88.2127 140.239 92.0591 149.115 90.956C150.468 90.7877 153.349 90.2738 154.305 89.6684ZM146.339 52.6352C154.021 52.6352 160.248 58.8626 160.248 66.5446C160.248 74.2266 154.021 80.4541 146.339 80.4541C138.657 80.4541 132.429 74.2266 132.429 66.5446C132.429 58.8626 138.657 52.6352 146.339 52.6352Z" fill="url(#paint0_linear_101_75)"/>
<path d="M13.6003 61.8997H0.0982666V17.0194H18.2732L24.7012 39.418C24.7874 39.7196 24.9596 40.4167 25.2073 41.4986C25.4548 42.5909 25.821 44.089 26.2841 45.993C26.5747 44.4947 26.8439 43.1735 27.1022 42.05C27.35 40.9265 27.5761 40.0733 27.7592 39.5012L34.3486 17.0194H52.4912V61.8997H38.9893L39.1184 39.8132C39.1184 38.4712 39.1184 37.1604 39.1293 35.8912C39.1401 34.622 39.1616 33.3112 39.183 31.9483C38.677 34.2682 38.0632 36.7962 37.3526 39.5324L37.2556 39.9277L31.517 61.8997H21.1049L15.3015 40.4167C15.0323 39.4388 14.7525 38.3256 14.4833 37.0668C14.2141 35.808 13.848 34.1018 13.4065 31.9483C13.4711 33.8833 13.5251 35.5374 13.5572 36.9107C13.5895 38.2943 13.6003 39.4076 13.6003 40.2398V61.8997ZM76.1899 37.1813H80.9811C84.0822 37.1813 86.1602 36.8484 87.2154 36.1721C88.2598 35.5064 88.7873 34.3203 88.7873 32.6037C88.7873 30.8768 88.2812 29.6804 87.28 29.0145C86.2677 28.3383 84.1683 28.0054 80.9811 28.0054H76.1899V37.1813ZM61.2665 61.8997V17.0194H80.3781C84.6098 17.0194 87.9583 17.2587 90.424 17.7372C92.9004 18.2159 94.9676 18.9753 96.6258 20.0364C98.7686 21.4408 100.373 23.1784 101.417 25.2486C102.472 27.3187 103 29.774 103 32.6245C103 37.639 101.46 41.4882 98.3917 44.1618C95.323 46.8356 90.8869 48.1672 85.105 48.1672H76.1899V61.8997H61.2665Z" fill="#434242"/>
<path d="M5.01841 80.7734V68.8463H0.408875V67.261H11.4835V68.8463H6.87393V80.7734H5.01841ZM27.0727 74.1965C27.0727 71.9569 27.6977 70.2019 28.9445 68.9342C30.1914 67.6666 31.7995 67.0344 33.7722 67.0344C35.0646 67.0344 36.2267 67.3332 37.2652 67.9277C38.3005 68.5223 39.0916 69.3526 39.6351 70.4188C40.1788 71.482 40.4523 72.6898 40.4523 74.0392C40.4523 75.4074 40.1658 76.6341 39.5929 77.7131C39.0198 78.795 38.2092 79.6129 37.1611 80.1664C36.1096 80.7232 34.9767 81 33.7623 81C32.444 81 31.2689 80.6917 30.2304 80.0783C29.1952 79.465 28.4075 78.6284 27.8735 77.5652C27.3397 76.5053 27.0727 75.3822 27.0727 74.1965ZM28.9868 74.2279C28.9868 75.8541 29.4393 77.1343 30.3444 78.0683C31.2493 79.0026 32.3854 79.4712 33.7528 79.4712C35.146 79.4712 36.2885 78.9993 37.1903 78.0558C38.0888 77.1123 38.5381 75.7723 38.5381 74.036C38.5381 72.9383 38.346 71.979 37.9618 71.1611C37.5778 70.3433 37.0145 69.7081 36.2756 69.2582C35.5334 68.8085 34.7032 68.5819 33.782 68.5819C32.4732 68.5819 31.347 69.0161 30.4029 69.8842C29.4589 70.7522 28.9868 72.1992 28.9868 74.2279ZM56.8618 74.1965C56.8618 71.9569 57.4869 70.2019 58.7337 68.9342C59.9805 67.6666 61.5886 67.0344 63.5613 67.0344C64.8537 67.0344 66.0159 67.3332 67.0544 67.9277C68.0896 68.5223 68.8807 69.3526 69.4243 70.4188C69.9679 71.482 70.2415 72.6898 70.2415 74.0392C70.2415 75.4074 69.955 76.6341 69.382 77.7131C68.809 78.795 67.9984 79.6129 66.9502 80.1664C65.8988 80.7232 64.7659 81 63.5515 81C62.2332 81 61.0581 80.6917 60.0196 80.0783C58.9844 79.465 58.1966 78.6284 57.6627 77.5652C57.1288 76.5053 56.8618 75.3822 56.8618 74.1965ZM58.776 74.2279C58.776 75.8541 59.2284 77.1343 60.1336 78.0683C61.0385 79.0026 62.1746 79.4712 63.5419 79.4712C64.9352 79.4712 66.0777 78.9993 66.9795 78.0558C67.878 77.1123 68.3272 75.7723 68.3272 74.036C68.3272 72.9383 68.1352 71.979 67.751 71.1611C67.367 70.3433 66.8037 69.7081 66.0648 69.2582C65.3225 68.8085 64.4923 68.5819 63.5712 68.5819C62.2624 68.5819 61.1362 69.0161 60.192 69.8842C59.2481 70.7522 58.776 72.1992 58.776 74.2279ZM87.1393 80.7734V67.261H88.9948V79.1882H95.8702V80.7734H87.1393Z" fill="#434242"/>
<defs>
<linearGradient id="paint0_linear_101_75" x1="115.194" y1="83.8838" x2="184.137" y2="54.5124" gradientUnits="userSpaceOnUse">
<stop stop-color="#55B4AF"/>
<stop offset="0.458824" stop-color="#399793"/>
<stop offset="0.983985" stop-color="#22BC8E"/>
</linearGradient>
</defs>
</svg>
