<?xml version="1.0" encoding="UTF-8"?>
<!DOCTYPE svg PUBLIC "-//W3C//DTD SVG 1.1//EN" "http://www.w3.org/Graphics/SVG/1.1/DTD/svg11.dtd">
<!-- Creator: CorelDRAW 2021 (64-Bit) -->
<svg xmlns="http://www.w3.org/2000/svg" xml:space="preserve" width="297mm" height="210mm" version="1.1" style="shape-rendering:geometricPrecision; text-rendering:geometricPrecision; image-rendering:optimizeQuality; fill-rule:evenodd; clip-rule:evenodd"
viewBox="0 0 29700 21000"
 xmlns:xlink="http://www.w3.org/1999/xlink"
 xmlns:xodm="http://www.corel.com/coreldraw/odm/2003">
 <defs>
  <style type="text/css">
   <![CDATA[
    .fil3 {fill:#FEFEFE;fill-rule:nonzero}
    .fil0 {fill:#434242;fill-rule:nonzero}
    .fil4 {fill:#44B1BB;fill-rule:nonzero}
    .fil1 {fill:#A1E4FF;fill-rule:nonzero}
    .fil2 {fill:url(#id0);fill-rule:nonzero}
    .fil5 {fill:url(#id1);fill-rule:nonzero}
   ]]>
  </style>
  <linearGradient id="id0" gradientUnits="userSpaceOnUse" x1="15257.55" y1="10507.14" x2="25861.12" y2="10507.14">
   <stop offset="0" style="stop-opacity:1; stop-color:#70BA9E"/>
   <stop offset="0.501961" style="stop-opacity:1; stop-color:#83BF8D"/>
   <stop offset="1" style="stop-opacity:1; stop-color:#44B1BB"/>
  </linearGradient>
  <linearGradient id="id1" gradientUnits="userSpaceOnUse" x1="16607.7" y1="10044.14" x2="20721.27" y2="13039.51">
   <stop offset="0" style="stop-opacity:1; stop-color:#83BF8D"/>
   <stop offset="1" style="stop-opacity:1; stop-color:#44B1BB"/>
  </linearGradient>
 </defs>
 <g id="Слой_x0020_1">
  <metadata id="CorelCorpID_0Corel-Layer"/>
  <path class="fil0" d="M5403.69 11476.71l-1565.87 0 0 -5386.86 2107.8 0 745.47 2688.44c9.99,36.2 29.97,119.87 58.69,249.73 28.71,131.11 71.17,310.92 124.88,539.45 33.7,-179.83 64.92,-338.41 94.88,-473.26 28.74,-134.86 54.96,-237.26 76.19,-305.93l764.19 -2698.43 2104.05 0 0 5386.86 -1565.85 0 14.97 -2650.98c0,-161.08 0,-318.41 1.26,-470.75 1.25,-152.34 3.75,-309.67 6.23,-473.26 -58.68,278.45 -129.86,581.89 -212.28,910.31l-11.24 47.44 -665.53 2637.24 -1207.51 0 -673.04 -2578.55c-31.22,-117.37 -63.67,-250.99 -94.89,-402.08 -31.22,-151.09 -73.68,-355.88 -124.88,-614.36 7.49,232.26 13.75,430.8 17.48,595.63 3.75,166.07 5,299.69 5,399.58l0 2599.78zm7258.68 -2966.88l555.65 0c359.64,0 600.63,-39.96 723.01,-121.13 121.12,-79.91 182.29,-222.27 182.29,-428.31 0,-207.28 -58.69,-350.88 -174.8,-430.8 -117.4,-81.16 -360.87,-121.12 -730.5,-121.12l-555.65 0 0 1101.36zm-1730.71 2966.88l0 -5386.86 2216.43 0c490.76,0 879.09,28.72 1165.05,86.15 287.19,57.46 526.93,148.61 719.23,275.97 248.51,168.57 434.55,377.12 555.68,625.6 122.37,248.48 183.56,543.18 183.56,885.32 0,601.87 -178.56,1063.88 -534.44,1384.79 -355.89,320.93 -870.35,480.76 -1540.89,480.76l-1033.91 0 0 1648.27 -1730.71 0z"/>
  <path class="fil0" d="M4408.42 13742.09l0 -1431.59 -534.58 0 0 -190.28 1284.35 0 0 190.28 -534.58 0 0 1431.59 -215.19 0zm2557.69 -789.41c0,-268.82 72.49,-479.47 217.08,-631.63 144.61,-152.14 331.1,-228.02 559.88,-228.02 149.89,0 284.66,35.86 405.1,107.22 120.06,71.36 211.81,171.02 274.84,299 63.05,127.61 94.77,272.58 94.77,434.55 0,164.22 -33.22,311.46 -99.66,440.96 -66.47,129.86 -160.47,228.03 -282.03,294.47 -121.94,66.83 -253.33,100.05 -394.16,100.05 -152.89,0 -289.17,-37 -409.61,-110.63 -120.05,-73.61 -211.41,-174.03 -273.33,-301.64 -61.91,-127.22 -92.88,-262.02 -92.88,-404.33zm221.99 3.76c0,195.19 52.48,348.85 157.44,460.96 104.95,112.14 236.7,168.39 395.28,168.39 161.58,0 294.08,-56.64 398.66,-169.89 104.2,-113.25 156.31,-274.08 156.31,-482.49 0,-131.75 -22.28,-246.89 -66.84,-345.06 -44.53,-98.16 -109.86,-174.41 -195.55,-228.41 -86.08,-53.97 -182.36,-81.17 -289.19,-81.17 -151.78,0 -282.39,52.11 -391.88,156.31 -109.48,104.19 -164.23,277.86 -164.23,521.36zm3232.74 -3.76c0,-268.82 72.49,-479.47 217.08,-631.63 144.6,-152.14 331.1,-228.02 559.88,-228.02 149.88,0 284.66,35.86 405.1,107.22 120.06,71.36 211.8,171.02 274.84,299 63.05,127.61 94.77,272.58 94.77,434.55 0,164.22 -33.22,311.46 -99.67,440.96 -66.46,129.86 -160.46,228.03 -282.02,294.47 -121.94,66.83 -253.33,100.05 -394.16,100.05 -152.89,0 -289.17,-37 -409.61,-110.63 -120.05,-73.61 -211.41,-174.03 -273.33,-301.64 -61.92,-127.22 -92.88,-262.02 -92.88,-404.33zm221.99 3.76c0,195.19 52.47,348.85 157.44,460.96 104.95,112.14 236.7,168.39 395.28,168.39 161.58,0 294.08,-56.64 398.66,-169.89 104.2,-113.25 156.3,-274.08 156.3,-482.49 0,-131.75 -22.27,-246.89 -66.83,-345.06 -44.53,-98.16 -109.86,-174.41 -195.55,-228.41 -86.08,-53.97 -182.36,-81.17 -289.19,-81.17 -151.78,0 -282.39,52.11 -391.89,156.31 -109.47,104.19 -164.22,277.86 -164.22,521.36zm3289.37 785.65l0 -1621.87 215.19 0 0 1431.6 797.35 0 0 190.27 -1012.54 0z"/>
  <path class="fil1" d="M16177.85 10463.83c-947.76,2138.97 1096.7,4370.08 3311.12,3636.14 224.85,-83.65 469.3,-194.23 664.88,-332.89 272.8,-188.25 508.58,-428.46 693.72,-702.07 -377.57,542.95 -960.34,935.73 -1602.46,1083.21 -2136.92,488.46 -3936.76,-1668.56 -3067.26,-3684.39z"/>
  <path class="fil2" d="M21579.19 16627.02c441.39,-253.44 593.73,-816.69 340.29,-1258.06 -211.59,-368.49 -639.13,-535.46 -1031.41,-433.09l-346.75 -603.88c371.27,-253.78 677.23,-571.5 912.46,-929.3l-606.21 -337.68c-220.77,322.11 -515.59,600.87 -876.91,808.33 -1285.54,738.16 -2926.09,294.42 -3664.25,-991.14 -441.47,-768.85 -459.84,-1664.54 -128.56,-2418.37l-606.5 -337.84c-444.09,960.28 -432.25,2113.66 134.65,3100.96 884.01,1539.57 2796.87,2119.29 4373.76,1370.15l353.72 616.04c-257.89,288.08 -315.39,719.93 -112.33,1073.58 253.43,441.37 816.69,593.72 1258.04,340.3zm536.2 -12276.13c461.52,214.57 661.67,762.64 447.05,1224.16 -178.85,384.69 -589.44,587.72 -988.42,520.4l-1272.92 2514.16c376.01,213.12 714.82,500.35 991.99,855.47l-608.3 349.28c-820.38,-973.93 -2243.93,-1252.92 -3387.24,-596.43 -301.76,173.26 -556.47,396.71 -761.07,653.16l-611.71 -340.74c268.32,-361.1 613.02,-674.52 1028.03,-912.82 907.92,-521.32 1956.38,-573.67 2865.74,-233.25l1278.36 -2524.9c-282.92,-264.76 -377.98,-690.99 -205.73,-1061.44 214.62,-461.52 762.7,-661.67 1224.22,-447.05zm3741.67 7298.47c47.3,-506.76 -325.16,-955.91 -831.91,-1003.21 -442.99,-41.37 -841.95,238.06 -966.94,647.58l-2057.83 -4.86c-30.23,-398.24 -131.83,-796.23 -309.8,-1175.19l-602.26 345.82c286.7,645.97 298.01,1356.89 73.22,1987.9l611.4 340.55c122.09,-309.09 198.24,-635.09 225.6,-966.82l2057.33 4.87c104.05,350.12 412.04,619.24 797.96,655.26 506.76,47.31 955.91,-325.15 1003.23,-831.9z"/>
  <path class="fil3" d="M21411.68 16335.29c280.26,-160.93 377,-518.57 216.09,-798.82 -160.93,-280.27 -518.58,-377.01 -798.84,-216.08 -280.23,160.91 -376.97,518.56 -216.05,798.82 160.92,280.25 518.57,376.99 798.8,216.08z"/>
  <path class="fil4" d="M21429.87 15650.08c-98.17,-170.96 -316.35,-229.97 -487.31,-131.8 -170.95,98.16 -229.96,316.32 -131.79,487.3 98.17,170.97 316.34,229.98 487.28,131.82 170.97,-98.17 229.99,-316.36 131.82,-487.32z"/>
  <path class="fil3" d="M21973.54 4655.89c293.05,136.27 420.13,484.28 283.87,777.32 -136.26,293.04 -484.28,420.13 -777.31,283.86 -293.04,-136.25 -420.13,-484.28 -283.86,-777.31 136.26,-293.04 484.26,-420.13 777.3,-283.87z"/>
  <path class="fil4" d="M22050.5 5337c-83.13,178.76 -295.43,256.29 -474.18,173.17 -178.77,-83.12 -256.29,-295.43 -173.17,-474.19 83.12,-178.75 295.43,-256.29 474.18,-173.17 178.76,83.12 256.3,295.43 173.17,474.19z"/>
  <path class="fil3" d="M25522.12 11618.1c30.03,-321.79 -206.47,-606.97 -528.24,-637.01 -321.77,-30.04 -606.97,206.46 -637,528.23 -30.04,321.77 206.45,606.97 528.23,637.01 321.76,30.03 606.96,-206.46 637.01,-528.23z"/>
  <path class="fil4" d="M24972.68 11208.29c-196.3,-18.32 -370.28,125.95 -388.61,322.24 -18.32,196.28 125.95,370.27 322.25,388.58 196.28,18.32 370.25,-125.94 388.59,-322.23 18.32,-196.28 -125.94,-370.26 -322.23,-388.59z"/>
  <path class="fil5" d="M17604.67 10313l-512.14 703.46 -8.91 -2.17 -795.87 -191.92c163.13,-556 515.47,-1030.46 982.15,-1347.93l431.45 705.89 -96.68 132.67zm1041.18 -1261.58c161.27,0 318.87,15.79 471.51,45.59l-192.89 799.44 -1021.71 160.73 -77.79 12.15c-15.6,2.52 -30.19,7.98 -43.35,15.99l-412.64 -674.86c372.16,-227.84 809.3,-359.04 1276.87,-359.04zm615.64 78.14c644.35,167.04 1186.38,590.17 1512.29,1154.96l-671.02 410.25c-8.09,-12.97 -18.61,-24.54 -31.23,-33.75l-963.69 -701.68c-12.62,-9.25 -26.86,-15.71 -41.8,-19.31l195.45 -810.47zm1568.92 1258.76c174.89,339.65 273.74,725.24 273.74,1134.06 0,212.01 -26.63,417.79 -76.59,614.17l-725.44 -174.94c3.52,-14.94 4.29,-30.53 1.82,-45.94l-12.23 -78.1 -160.77 -1021.63 699.47 -427.62zm165.26 1861.97c-165.46,540.17 -510.22,1001.39 -964.47,1313.45l-403.59 -660.42 96.6 -132.71 512.23 -703.42 8.82 2.13 750.41 180.97zm-1063.2 1377.89c-374.25,231.52 -814.92,365.19 -1286.62,365.19 -145.6,0 -288.26,-12.73 -426.89,-37.19l185.5 -768.98 1021.71 -160.73 77.83 -12.19c15.59,-2.48 30.18,-7.93 43.3,-15.91l385.17 629.81zm-1858.22 297.89c-646.25,-154.69 -1193.58,-565.79 -1529.63,-1120.47l681.58 -416.67c8.02,12.96 18.58,24.49 31.24,33.71l963.65 701.71c12.69,9.21 26.9,15.71 41.87,19.31l-188.71 782.41zm-1588.39 -1222.92c-190.22,-350.8 -298.35,-753.11 -298.35,-1180.77 0,-201.91 24.26,-398.06 69.74,-585.92l769.6 185.58c-3.56,14.98 -4.3,30.54 -1.86,45.94l12.27 78.06 160.81 1021.71 -712.21 435.4zm1342.75 5.77c633.13,460.98 1520.04,321.54 1981.06,-311.63 461.02,-633.14 321.5,-1520.08 -311.63,-1981.1 -633.1,-461.03 -1520.04,-321.47 -1981.07,311.59 -461.02,633.17 -321.53,1520.11 311.64,1981.14z"/>
 </g>
</svg>
